<?xml version="1.0" encoding="utf-8"?>
<!-- Generator: Adobe Illustrator 25.4.1, SVG Export Plug-In . SVG Version: 6.00 Build 0)  -->
<svg version="1.1" id="Logo" xmlns="http://www.w3.org/2000/svg" xmlns:xlink="http://www.w3.org/1999/xlink" x="0px" y="0px"
	 viewBox="0 0 492.9 109.6" style="enable-background:new 0 0 492.9 109.6;" xml:space="preserve">
<style type="text/css">
	.st0{fill:#FFFFFF;}
</style>
<g id="Togglebot">
	<g id="Wordmark">
		<g id="Cycle">
			<path class="st0" d="M492.7,69.4c0,0.9-0.5,1.4-1.4,1.4h-22.6v1.3c0,4.1,2.6,6.2,6.9,6.2c3.6,0,7.1-1,10.2-2.9
				c0.4-0.4,1.2-0.4,1.6,0c0.1,0.1,0.2,0.2,0.2,0.3l4.2,5.5c0.5,0.6,0.4,1.4-0.1,1.9l-0.1,0.1c-4.7,3.6-10.4,5.4-16.3,5.3
				c-10.4,0-18.8-5.5-18.8-16.6V61.7c0-11.9,8.4-17,18.6-17c9.8,0,17.8,5,17.8,17L492.7,69.4z M481,61.2c0-4.3-2.6-6.3-6.2-6.3
				s-6.2,1.9-6.2,6.3v1.7H481V61.2z"/>
			<path class="st0" d="M443.3,88.5c-9.4,0-14.8-5.8-14.8-15.5V31.7c-0.1-0.7,0.4-1.3,1.1-1.4c0.1,0,0.2,0,0.4,0h9.4
				c0.9,0,1.4,0.5,1.4,1.4v39.8c0,4,1.6,5.8,4.7,5.8c0.8,0,1.7,0,2.5-0.1c0.7-0.2,1.3,0.3,1.5,0.9c0,0.1,0,0.3,0,0.4v8
				c0,0.7-0.3,1.4-0.9,1.4C446.9,88.3,445.1,88.5,443.3,88.5z"/>
			<path class="st0" d="M405.7,88.5c-12.1,0-19-6.7-19-17.4v-9c0-10.6,7-17.3,18.9-17.3c4.6,0,9.2,1.3,13.1,3.8
				c0.6,0.4,0.9,1.2,0.5,1.8c0,0.1-0.1,0.1-0.1,0.2l-4.2,6.4c-0.5,0.8-1.1,0.9-2,0.5c-2.1-1.2-4.4-1.8-6.7-1.8c-4.4,0-7,2.4-7,6.5v9
				c0,4.5,2.8,6.6,7,6.6c2.7,0,5.4-0.8,7.7-2.3c0.6-0.5,1.4-0.3,1.9,0.2c0,0.1,0.1,0.1,0.1,0.2l4.3,6.4c0.5,0.6,0.4,1.4-0.1,1.8
				l-0.1,0.1C415.7,87,410.8,88.6,405.7,88.5z"/>
			<path class="st0" d="M363.8,47.2c0-0.7,0.5-1.3,1.2-1.4c0.1,0,0.2,0,0.3,0h9.4c0.7-0.1,1.3,0.4,1.4,1.1c0,0.1,0,0.2,0,0.3v36.2
				c0,13.9-5.8,20.2-19,20.2c-6.8,0-11.6-1.3-15.9-4.4c-0.6-0.3-0.9-1-0.6-1.6c0-0.1,0.1-0.2,0.2-0.3l4.2-6.5c0.3-0.6,1-0.9,1.7-0.6
				c0.1,0,0.1,0.1,0.2,0.1c2.9,1.8,6.3,2.7,9.7,2.7c4.8,0,7.6-1.8,7.5-7.8c-2.4,0.7-4.8,1.1-7.3,1.1c-9.7,0-17-6.2-17-17.1v-22
				c0-0.7,0.5-1.3,1.2-1.4c0.1,0,0.2,0,0.3,0h9.4c0.7-0.1,1.3,0.4,1.4,1.1c0,0.1,0,0.2,0,0.3V69c0,4.7,2.6,6.8,6.6,6.8
				c1.8,0,3.6-0.4,5.2-1.1V47.2H363.8z"/>
			<path class="st0" d="M312.3,88.5c-14.1,0-23.4-7.4-23.4-21.4V50.5c0-13.9,9.4-21.3,23.1-21.3c6.1,0,12.1,1.7,17.1,5.1
				c0.6,0.2,0.9,0.9,0.6,1.5c-0.1,0.1-0.1,0.2-0.2,0.3l-5,7.7c-0.3,0.6-1.1,0.9-1.8,0.6c-0.1,0-0.2-0.1-0.2-0.2
				c-3.1-1.9-6.6-2.9-10.3-2.9c-6.7,0-10.3,3.8-10.3,9.6v15.7c0,6.2,3.8,9.7,10.4,9.7c4,0,7.8-1.2,11.1-3.4c0.8-0.6,1.4-0.5,1.9,0.3
				l5.1,7.7c0.5,0.7,0.5,1.4-0.1,1.8C325.2,86.6,318.8,88.6,312.3,88.5z"/>
		</g>
		<g id="Dev">
			<path class="st0" d="M249.7,87.4c-0.7,0-1.3-0.4-1.5-1.1l-13.4-38.9c-0.4-1,0.1-1.6,1.1-1.6H246c0.7-0.1,1.4,0.4,1.5,1.1
				l4.9,17.5c0.9,2.7,2,7,2.9,10.5h0.2c0.9-3.5,2.1-7.8,2.9-10.5l5-17.5c0.2-0.7,0.9-1.2,1.6-1.1h10c1,0,1.4,0.6,1.1,1.6l-13.6,38.9
				c-0.2,0.7-0.9,1.1-1.6,1.1H249.7z"/>
			<path class="st0" d="M229.2,69.4c0,0.9-0.5,1.4-1.4,1.4h-22.6v1.3c0,4.1,2.6,6.2,6.9,6.2c3.6,0,7.1-1,10.2-2.9
				c0.4-0.4,1.2-0.4,1.6,0c0.1,0.1,0.2,0.2,0.2,0.3l4.2,5.5c0.5,0.6,0.4,1.4-0.1,1.9l-0.1,0.1c-4.7,3.6-10.4,5.4-16.3,5.3
				c-10.4,0-18.8-5.5-18.8-16.6V61.7c0-11.9,8.4-17,18.6-17c9.8,0,17.8,5,17.8,17v7.7H229.2z M217.5,61.2c0-4.3-2.6-6.3-6.2-6.3
				s-6.2,1.9-6.2,6.3v1.7h12.3L217.5,61.2L217.5,61.2z"/>
			<path class="st0" d="M141.2,87.4c-0.7,0.1-1.3-0.4-1.4-1.1c0-0.1,0-0.2,0-0.4V31.7c-0.1-0.7,0.4-1.3,1.1-1.4c0.1,0,0.2,0,0.4,0
				H161c12.8,0,22.6,5.8,22.6,22.3v12.7c0,16.6-9.8,22.2-22.6,22.2L141.2,87.4L141.2,87.4z M152.6,75.3h8.4c6.2,0,9.3-2.9,9.3-9.5
				V51.9c0-6.6-3.1-9.7-9.3-9.7h-8.4V75.3z"/>
		</g>
	</g>
	<path id="Thicker_Togglebot" class="st0" d="M50.1,109.6c-6.5,0-12.5-3.7-15.4-9.5c-0.4-0.7,0-1.6,0.7-2h0.1l3.3-1.3
		c0.7-0.3,1.5,0,1.8,0.7c2.8,5.3,9.4,7.3,14.6,4.4c1.9-1,3.4-2.6,4.4-4.4c0.3-0.7,1.1-1,1.8-0.7l3.3,1.3c0.8,0.3,1.1,1.2,0.8,1.9
		v0.1C62.6,105.9,56.6,109.6,50.1,109.6z M70.5,29.1H53.3v-9.6c5.2-1.8,8-7.5,6.3-12.7c-1.8-5.2-7.5-8-12.7-6.3s-8,7.5-6.3,12.7
		c1,2.9,3.3,5.3,6.3,6.3v9.6H29.7C13.3,29.2,0,42.4,0,58.8s13.3,29.6,29.6,29.6h40.8c16.4,0,29.6-13.3,29.6-29.7
		C100.1,42.4,86.8,29.2,70.5,29.1z M50.1,6.5c2,0,3.6,1.6,3.6,3.6s-1.6,3.6-3.6,3.6s-3.6-1.6-3.6-3.6l0,0
		C46.5,8.1,48.1,6.5,50.1,6.5z M70.5,82H45.9c-7.6,0-14.7-3.8-19-10c7.3,1.7,14.6-2.9,16.3-10.3c1.7-7.3-2.9-14.6-10.3-16.3
		c-7.3-1.7-14.6,2.9-16.3,10.3c-0.2,1-0.3,2-0.3,3c0,9,4.1,17.5,11.1,23.1C14.6,80.6,5.3,69.2,6.6,56.4c1.2-11.8,11.2-20.8,23-20.9
		h24.6c7.6,0,14.7,3.8,19,10c-1-0.2-2-0.3-3-0.3c-7.5,0-13.6,6.1-13.6,13.6s6.1,13.6,13.6,13.6s13.6-6.1,13.6-13.6l0,0
		c0-9-4.1-17.5-11.1-23.1C85.5,37,94.8,48.4,93.5,61.2C92.3,73,82.4,82,70.5,82L70.5,82z M22.7,58.8c0-4,3.2-7.2,7.2-7.2
		s7.2,3.2,7.2,7.2S33.9,66,29.9,66l0,0C25.9,66,22.7,62.8,22.7,58.8z M77.4,58.8c0,4-3.2,7.2-7.2,7.2S63,62.8,63,58.8
		s3.2-7.2,7.2-7.2S77.4,54.8,77.4,58.8z"/>
</g>
</svg>
